<svg xmlns="http://www.w3.org/2000/svg" xml:space="preserve" viewBox="0 0 32 32"><path fill="#5e438f" d="m7.143 25.58-4.63-3.477a1.16 1.16 0 0 1-.463-.924V10.74a1.16 1.16 0 0 1 .462-.924l4.631-3.476a1.04 1.04 0 0 0-.311.924v17.392a1.05 1.05 0 0 0 .311.924"/><path fill="#7252aa" d="M29.352 6.882a1.155 1.155 0 0 0-1.443.127l-.081.08L8.726 25.406l-.081.081a1.155 1.155 0 0 1-1.502.092l-4.63-3.476a1.155 1.155 0 0 0 1.57-.173c5.601-6.48 11.18-12.981 16.77-19.472.23-.265.542-.404.888-.404.231 0 .45.058.636.185z"/><path fill="#ae7fe2" d="M29.364 25.037 22.4 29.679a1.17 1.17 0 0 1-1.525-.208L4.095 9.988a1.155 1.155 0 0 0-1.583-.173l4.643-3.476a1.16 1.16 0 0 1 .693-.231c.3 0 .589.115.808.323l.07.081 19.102 18.317.08.08a1.155 1.155 0 0 0 1.444.128z"/><path fill="#d59dff" d="M29.872 7.84v16.226a1.16 1.16 0 0 1-.52.97L22.4 29.68a1.16 1.16 0 0 0 .508-.97V3.21a1.18 1.18 0 0 0-.531-.97l6.975 4.643a1.17 1.17 0 0 1 .52.958"/><path fill="#efeef0" d="m30.072 25.89.001 1.882-8.398-.001v-1.882l-1.883-.001V17.49h1.883l-.002-1.881h8.398v1.883h1.882v8.397z"/><path fill="#efeef0" d="M9.953 31.53V15.61h10.424v5.165h-4.684v.484H20v5.156h-4.306v5.116z"/><path fill="#378bba" d="M14.318 19.4v3.233h4.306v2.407h-4.306v5.116h-2.99V16.985h7.675V19.4z"/><path fill="#30b9db" d="M23.053 16.985h1.883v1.886h1.882v-1.886H28.7v1.886h1.881v1.882h-1.885v1.88h1.881v1.884h-1.88v1.882h-1.883v-1.883h-1.88v1.882h-1.88v-1.882H21.17V22.63h1.883v-1.878h-1.886V18.87h1.886zm1.883 5.648h1.882V20.75h-1.886z"/></svg>