<svg xmlns="http://www.w3.org/2000/svg" xml:space="preserve" viewBox="0 0 32 32"><path fill="#7080ff" d="M27.417 5.5H18.19l-2.083 4.2H4.5v16.8h25v-21Zm0 4.2h-8.135l1.091-2.1h7.044Z"/><path fill="#34d399" d="m15.301 12.965 12.044-.964a.327.327 0 0 1 .35.3l1.265 15.773a.32.32 0 0 1-.3.35l-12.044.964a.32.32 0 0 1-.35-.3L15 13.315a.32.32 0 0 1 .3-.35"/><path fill="#b4fae2" stroke="#b4fae2" stroke-linejoin="round" stroke-width=".3357445" d="m26.167 24.724-1.565-7.265-3.336 2.521zm-3.472-3.358-4.9-4.743 1.564 7.272z"/></svg>